<svg width="48" height="48" viewBox="0 0 48 48" fill="none" xmlns="http://www.w3.org/2000/svg">
<rect width="48" height="48" fill="#323238"/>
<path d="M32.8205 13.5H15.2944C14.3367 13.5 13.5 14.1891 13.5 15.1355V32.7005C13.5 33.652 14.3367 34.5 15.2944 34.5H32.8153C33.7781 34.5 34.5 33.6464 34.5 32.7005V15.1355C34.5056 14.1891 33.7781 13.5 32.8205 13.5ZM20.0095 31.0045H17.0011V21.6506H20.0095V31.0045ZM18.6094 20.2284H18.5878C17.625 20.2284 17.0016 19.5117 17.0016 18.6145C17.0016 17.7009 17.6414 17.0011 18.6258 17.0011C19.6102 17.0011 20.2125 17.6958 20.2341 18.6145C20.2336 19.5117 19.6102 20.2284 18.6094 20.2284ZM31.0045 31.0045H27.9961V25.89C27.9961 24.6647 27.5583 23.8275 26.4698 23.8275C25.6383 23.8275 25.1461 24.39 24.9272 24.938C24.8452 25.1348 24.8231 25.403 24.8231 25.6767V31.0045H21.8147V21.6506H24.8231V22.9523C25.2609 22.3289 25.9448 21.4317 27.5363 21.4317C29.5111 21.4317 31.005 22.7334 31.005 25.5398L31.0045 31.0045Z" fill="white"/>
</svg>
